OpenSim_Sub05_CSStiffKnee_GRF.mot
version=1
nRows=34
nColumns=19
inDegrees=no
endheader
time	lFx	lFy	lFz	lCOPx	lCOPy	lCOPz	rFx	rFy	rFz	rCOPx	rCOPy	rCOPz	lMx	lMy	lMz	rMx	rMy	rMz
28.12000000	0.23951488	-0.22195304	-2.96339555	0.00146127	0	-0.00090924	1.12950152	738.78156790	-75.75830694	0.94240489	0	-0.33411006	0	0.00063235	0	0	-0.27404572	-0.00000000
28.13000000	0.23314602	-0.03416265	-3.00952827	0.00090516	0	-0.00057232	4.50542102	740.92428581	-75.53418838	0.93493177	0	-0.33447929	0	0.00661934	0	0	0.02813243	0
28.14000000	0.30634271	-0.08660534	-3.01579372	-0.00277220	0	0.00169708	8.07758071	742.41361937	-74.65594431	0.92749935	0	-0.33502478	0	0.01784986	0	0	0.36809508	0.00000000
28.15000000	0.36656836	-0.77141990	-2.98768221	-0.01191204	0	0.00736130	11.57971969	744.23014124	-73.26201254	0.92024801	0	-0.33570603	0	0.02950055	0	0	0.71803147	0
28.16000000	0.15940851	-2.31632373	-2.93484187	-0.02592543	0	0.01608208	14.85898429	747.55723659	-71.61845668	0.91319272	0	-0.33649240	0	0.02255357	0	0	1.11574453	-0.00000000
28.17000000	-0.76621124	-4.21173448	-2.83247913	-0.03413329	0	0.02127971	17.90176109	753.12176578	-70.01726754	0.90635420	0	-0.33738719	0	-0.04287430	0	0	1.54181560	0
28.18000000	-2.77719779	-4.04807951	-2.77266205	-0.00610292	0	0.00411035	20.74264894	760.61122190	-68.51847897	0.89966558	0	-0.33838566	0	-0.21666707	0	0	1.92934356	-0.00000000
28.19000000	-5.45949345	3.73853118	-2.87733156	0.11076138	0	-0.06811712	23.57132960	768.72921826	-66.92034776	0.89304129	0	-0.33945365	0	-0.50018056	0	0	2.28267710	-0.00000000
28.20000000	-6.23724207	27.18337692	-3.39821175	0.36194544	0	-0.22394689	26.54156118	775.77300531	-64.96406870	0.88644031	0	-0.34054783	0	-0.70840794	0	0	2.62043869	0.00000000
28.21000000	-1.38059644	74.40266486	-4.67366059	0.69071663	0	-0.42900321	29.94606298	780.03584224	-62.58511996	0.87990917	0	-0.34163071	0	-0.28012245	0	0	2.91052689	0
28.22000000	7.72956813	148.60932075	-6.03482617	0.92651128	0	-0.57945092	34.14717074	780.05235110	-60.02028205	0.87346248	0	-0.34269240	0	1.18724358	0	0	3.12813618	0
28.23000000	14.18274787	242.81216081	-4.94407514	1.02757786	0	-0.64822772	39.44739360	774.88675850	-57.56645565	0.86710797	0	-0.34371463	0	2.81668767	0	0	3.25495626	0
28.24000000	14.15191780	341.64512496	-1.06368312	1.04526313	0	-0.66471710	45.98038808	764.13948459	-55.37503063	0.86095486	0	-0.34466685	0	3.76830681	0	0	3.24268532	0
28.25000000	9.59907990	429.13951409	5.58614508	1.03207432	0	-0.66062992	53.70554225	747.41941747	-53.24023675	0.85479640	0	-0.34555167	0	3.62897621	0	0	3.09686793	0
28.26000000	3.69765807	495.55545821	14.82127404	1.01549992	0	-0.65379120	62.10767296	724.66891188	-50.68238635	0.84855301	0	-0.34639129	0	2.43577190	0	0	2.88677950	-0.00000000
28.27000000	-1.40370262	539.98945145	25.60681452	1.00387945	0	-0.65024794	70.31779496	696.04692761	-47.14701659	0.84248631	0	-0.34723109	0	0.47715324	0	0	2.65364953	0
28.28000000	-4.81574447	569.54354765	37.02227032	0.99679618	0	-0.65016843	77.44040258	660.99409539	-42.08398386	0.83682489	0	-0.34808957	0	-1.93657076	0	0	2.35179805	0
28.29000000	-6.66795929	594.71740053	48.72326163	0.99182888	0	-0.65198156	82.68695366	617.70815682	-35.19567625	0.83139400	0	-0.34903620	0	-4.52175840	0	0	2.04937143	0
28.30000000	-7.18730178	623.50193796	60.09558645	0.98722837	0	-0.65429169	85.21743864	563.84093012	-26.84329710	0.82646347	0	-0.35032440	0	-6.93717635	0	0	1.88497718	0
28.31000000	-6.72765282	658.83711974	70.20839996	0.98238081	0	-0.65628808	83.97723376	498.11402616	-17.57035471	0.82285597	0	-0.35237222	0	-8.81789655	0	0	1.76875913	-0.00000000
28.32000000	-5.89073103	699.15760088	78.18160841	0.97723349	0	-0.65765546	78.01461135	421.82374410	-8.28348243	0.82176445	0	-0.35586521	0	-9.95352542	0	0	1.60607369	0
28.33000000	-4.83884843	740.54826370	83.67911749	0.97180163	0	-0.65842066	66.86088112	339.41473877	-0.41666008	0.82421759	0	-0.36162332	0	-10.36184382	0	0	1.42311107	0.00000000
28.34000000	-3.23725388	778.86552280	86.87485491	0.96635568	0	-0.65880351	50.77531536	258.15344793	4.96279740	0.82992665	0	-0.36918490	0	-10.22180671	0	0	1.18129419	0.00000000
28.35000000	-1.09959279	810.62143116	88.43791840	0.96088944	0	-0.65899783	31.87500684	185.32504709	7.39019523	0.83217890	0	-0.37397915	0	-9.86594298	0	0	0.87610208	0.00000000
28.36000000	1.69672649	832.87709528	88.95750390	0.95493298	0	-0.65913371	13.38650338	125.87985181	7.31980211	0.81084444	0	-0.36403860	0	-9.51393354	0	0	0.63041817	-0.00000000
28.37000000	5.14037472	843.95812067	88.82758336	0.94849027	0	-0.65928419	-1.83191566	81.31509837	5.87816430	0.72975404	0	-0.31988638	0	-9.27963962	0	0	0.52137887	0
28.38000000	8.61391339	844.46757817	88.42894497	0.94187143	0	-0.65947111	-12.01799849	50.27449316	3.98984263	0.55724648	0	-0.22715382	0	-9.22807134	0	0	0.52335764	-0.00000000
28.39000000	11.40852194	836.75046205	87.88504677	0.93522391	0	-0.65972386	-15.67474317	29.22093035	2.38709540	0.32063261	0	-0.11479132	0	-9.32273133	0	0	0.49361743	0
28.40000000	13.18755595	823.58134500	87.26278735	0.92869529	0	-0.66008294	-12.73786342	14.50166269	1.25589803	0.11750071	0	-0.03394286	0	-9.52971288	0	0	0.28146557	-0.00000000
28.41000000	14.23031221	807.32397587	86.59652106	0.92240194	0	-0.66055125	-6.76085906	4.71061052	0.19603537	0.01022868	0	0.00289164	0	-9.83865854	0	0	0.09687728	-0.00000000
28.42000000	15.24951848	789.88518782	85.70793852	0.91649647	0	-0.66110449	-2.01003331	-0.23760279	-0.34808187	-0.02273610	0	0.01128411	0	-10.14911774	0	0	0.00392120	0.00000000
28.43000000	16.62757407	773.06180599	84.46158109	0.91086953	0	-0.66167917	0.28901474	-1.62260548	-0.30316992	-0.02103844	0	0.00834016	0	-10.35206543	0	0	-0.02238542	0.00000000
28.44000000	18.21314808	758.48073351	82.95245813	0.90545491	0	-0.66222078	0.87392965	-1.40501547	-0.28957054	-0.01097545	0	0.00375204	0	-10.43681600	0	0	-0.01909214	-0.00000000
28.45000000	19.76558692	746.94071305	81.21962523	0.90013571	0	-0.66270246	0.70575064	-0.93663896	-0.26215446	-0.00330547	0	0.00082725	0	-10.38958527	0	0	-0.00949788	-0.00000000
